<svg version="1.1" xmlns="http://www.w3.org/2000/svg" viewBox="0 0 1206.1701957053938 842.096197962815" width="1206.1701957053938" height="842.096197962815">
  <!-- svg-source:excalidraw -->
  
  <defs>
    <style class="style-fonts">
      @font-face {
        font-family: "Virgil";
        src: url("https://excalidraw.com/Virgil.woff2");
      }
      @font-face {
        font-family: "Cascadia";
        src: url("https://excalidraw.com/Cascadia.woff2");
      }
      @font-face {
        font-family: "Assistant";
        src: url("https://excalidraw.com/Assistant-Regular.woff2");
      }
    </style>
    
  </defs>
  <rect x="0" y="0" width="1206.1701957053938" height="842.096197962815" fill="#ffffff"></rect><g stroke-linecap="round" transform="translate(10 10) rotate(0 593.0850978526969 411.0480989814075)"><path d="M32 0 C367.73 5.28, 705.44 4.31, 1154.17 0 C1175.59 1.17, 1188.68 13.31, 1186.17 32 C1181.35 245.16, 1182.15 459.77, 1186.17 790.1 C1184.05 810.05, 1176.1 819.02, 1154.17 822.1 C893.56 819.11, 632.19 819.05, 32 822.1 C10.76 821.58, -0.25 811.71, 0 790.1 C-2.55 607.47, -2.67 424.74, 0 32 C2.18 9.58, 12.85 3.52, 32 0" stroke="none" stroke-width="0" fill="#ffffff"></path><path d="M32 0 C434.87 0.98, 838.64 1.7, 1154.17 0 M32 0 C463.03 -1.22, 893.19 -0.72, 1154.17 0 M1154.17 0 C1175.24 1.1, 1186.6 11.72, 1186.17 32 M1154.17 0 C1174.83 1.85, 1188.26 12.07, 1186.17 32 M1186.17 32 C1184.89 216.61, 1186.05 399.74, 1186.17 790.1 M1186.17 32 C1183.53 333.5, 1183.51 635.49, 1186.17 790.1 M1186.17 790.1 C1188 813.01, 1173.99 824.08, 1154.17 822.1 M1186.17 790.1 C1185.27 811.55, 1176.01 822.34, 1154.17 822.1 M1154.17 822.1 C820.51 824.63, 485.64 823.81, 32 822.1 M1154.17 822.1 C723.79 818.88, 293.63 818.72, 32 822.1 M32 822.1 C9.98 823.44, -1.79 812.44, 0 790.1 M32 822.1 C9.7 820.2, 0.33 811.45, 0 790.1 M0 790.1 C1.52 622.84, 1.43 456.37, 0 32 M0 790.1 C0.61 489.42, 0.58 187.96, 0 32 M0 32 C1.18 11.81, 9.26 -0.77, 32 0 M0 32 C1.17 8.37, 11.5 1.21, 32 0" stroke="#000000" stroke-width="1" fill="none"></path></g><g transform="translate(548.7651439342408 15) rotate(0 54.31995391845703 12.5)"><text x="54.31995391845703" y="17.52" font-family="Virgil, Segoe UI Emoji" font-size="20px" fill="#000000" text-anchor="middle" style="white-space: pre;" direction="ltr" dominant-baseline="alphabetic">Op batcher</text></g><g stroke-linecap="round" transform="translate(111.73752291539677 92.27912123670421) rotate(0 90.849609375 53.25927734375)"><path d="M26.63 0 C73.99 -1.42, 113.39 -1.04, 155.07 0 C175.04 1.25, 184.53 7.04, 181.7 26.63 C185.7 42.85, 184.26 60.38, 181.7 79.89 C184.69 94.57, 176.36 109.83, 155.07 106.52 C103.72 105.11, 54.96 106.81, 26.63 106.52 C7.56 104.85, 0.99 99.59, 0 79.89 C3.17 69.49, 3.31 55.89, 0 26.63 C-1.12 6.04, 7.24 -2.72, 26.63 0" stroke="none" stroke-width="0" fill="#ffffff"></path><path d="M26.63 0 C68.56 -0.57, 110.25 -0.12, 155.07 0 M26.63 0 C56.81 1.38, 87.71 1.5, 155.07 0 M155.07 0 C174.03 -0.6, 182.91 10.83, 181.7 26.63 M155.07 0 C171.38 -1.03, 182.69 7.03, 181.7 26.63 M181.7 26.63 C183.55 38.86, 181.65 52.77, 181.7 79.89 M181.7 26.63 C182 43.92, 181.2 61.76, 181.7 79.89 M181.7 79.89 C181.43 99.35, 172.15 106.72, 155.07 106.52 M181.7 79.89 C181.1 97.07, 172.05 107.87, 155.07 106.52 M155.07 106.52 C115.86 109.02, 78.5 108.51, 26.63 106.52 M155.07 106.52 C127.37 107.22, 98.3 106.73, 26.63 106.52 M26.63 106.52 C8.03 108.49, 0.8 97.45, 0 79.89 M26.63 106.52 C10.18 106.06, -0.2 97.04, 0 79.89 M0 79.89 C-1.34 60.74, 0.44 38.75, 0 26.63 M0 79.89 C0.45 65.68, 0.84 51.36, 0 26.63 M0 26.63 C1.77 10.07, 9.09 0.86, 26.63 0 M0 26.63 C1.6 9.72, 8.82 0.08, 26.63 0" stroke="#000000" stroke-width="1" fill="none"></path></g><g transform="translate(130.32718355992802 120.53839858045421) rotate(0 72.25994873046875 25)"><text x="72.25994873046875" y="17.52" font-family="Virgil, Segoe UI Emoji" font-size="20px" fill="#000000" text-anchor="middle" style="white-space: pre;" direction="ltr" dominant-baseline="alphabetic">Aggregate L2 </text><text x="72.25994873046875" y="42.519999999999996" font-family="Virgil, Segoe UI Emoji" font-size="20px" fill="#000000" text-anchor="middle" style="white-space: pre;" direction="ltr" dominant-baseline="alphabetic">blocks</text></g><g stroke-linecap="round" transform="translate(113.04611666539677 288.4168165492042) rotate(0 91.9482421875 47.7734375)"><path d="M23.89 0 C59.68 -5.07, 87.41 -1.96, 160.01 0 C175.59 1.89, 181.55 6.38, 183.9 23.89 C186.91 41.32, 181.76 57.41, 183.9 71.66 C180.41 85.21, 173.43 94.3, 160.01 95.55 C124.45 95.84, 85.49 91.71, 23.89 95.55 C7.81 92.97, -0.32 87.56, 0 71.66 C0.49 57.86, 1.91 41.11, 0 23.89 C-2.11 9.47, 8.75 -0.4, 23.89 0" stroke="none" stroke-width="0" fill="#ffffff"></path><path d="M23.89 0 C58.99 3.08, 97.21 -0.44, 160.01 0 M23.89 0 C61.23 -0.68, 99.14 0.4, 160.01 0 M160.01 0 C177.83 1.79, 184.7 6.93, 183.9 23.89 M160.01 0 C177.46 -0.26, 185.4 9.56, 183.9 23.89 M183.9 23.89 C183.81 35.7, 184.17 49.23, 183.9 71.66 M183.9 23.89 C185.05 35.65, 183.45 46.63, 183.9 71.66 M183.9 71.66 C183.26 88.43, 176.86 94.02, 160.01 95.55 M183.9 71.66 C185.44 87.36, 175.97 96.5, 160.01 95.55 M160.01 95.55 C127.45 95.8, 97.14 94.7, 23.89 95.55 M160.01 95.55 C110.03 94.13, 60.45 94.64, 23.89 95.55 M23.89 95.55 C6.32 96.68, 1.1 87.94, 0 71.66 M23.89 95.55 C7.99 96.34, 0.8 89.23, 0 71.66 M0 71.66 C0.29 61.56, 1.44 50.7, 0 23.89 M0 71.66 C0.78 59.54, -0.82 47.04, 0 23.89 M0 23.89 C1.21 6.15, 9.7 1.16, 23.89 0 M0 23.89 C0.12 6.65, 6.29 0.3, 23.89 0" stroke="#000000" stroke-width="1" fill="none"></path></g><g transform="translate(131.4644134793616 311.1902540492042) rotate(0 73.52994537353516 25)"><text x="73.52994537353516" y="17.52" font-family="Virgil, Segoe UI Emoji" font-size="20px" fill="#000000" text-anchor="middle" style="white-space: pre;" direction="ltr" dominant-baseline="alphabetic">Push data to </text><text x="73.52994537353516" y="42.519999999999996" font-family="Virgil, Segoe UI Emoji" font-size="20px" fill="#000000" text-anchor="middle" style="white-space: pre;" direction="ltr" dominant-baseline="alphabetic">DA</text></g><g stroke-linecap="round"><g transform="translate(202.91916354039677 214.8963087367042) rotate(0 0.9814453125 28.84765625)"><path d="M0.99 -1.11 C1 8.24, 0.8 46.91, 0.83 56.75 M0.05 0.93 C0.35 10.33, 2.34 48.05, 2.95 57.79" stroke="#000000" stroke-width="1" fill="none"></path></g><g transform="translate(202.91916354039677 214.8963087367042) rotate(0 0.9814453125 28.84765625)"><path d="M-6.91 34.81 C-5.05 41.17, -1.22 50.08, 2.95 57.79 M-6.91 34.81 C-3.32 41.59, 0.33 49.46, 2.95 57.79" stroke="#000000" stroke-width="1" fill="none"></path></g><g transform="translate(202.91916354039677 214.8963087367042) rotate(0 0.9814453125 28.84765625)"><path d="M10.16 33.85 C5.84 40.69, 3.49 49.96, 2.95 57.79 M10.16 33.85 C8.32 40.9, 6.53 49.08, 2.95 57.79" stroke="#000000" stroke-width="1" fill="none"></path></g></g><mask></mask><g stroke-linecap="round" transform="translate(110.15549166539677 499.4812696742042) rotate(0 95.48583984375 55.17822265625)"><path d="M27.59 0 C53.65 -2.03, 86.27 0.99, 163.38 0 C180.14 2.23, 189.61 12.15, 190.97 27.59 C192.9 40.12, 187.54 52.58, 190.97 82.77 C190.93 98.78, 178.58 113.9, 163.38 110.36 C118.35 110.93, 64.25 108.59, 27.59 110.36 C10.97 112.78, -3.01 102.6, 0 82.77 C1.05 68.54, 1.09 46.89, 0 27.59 C-2.36 7.28, 10.08 0.72, 27.59 0" stroke="none" stroke-width="0" fill="#ffffff"></path><path d="M27.59 0 C56.49 0.19, 87.89 -1.84, 163.38 0 M27.59 0 C78.71 -1, 129.12 -0.36, 163.38 0 M163.38 0 C181.14 -0.21, 189.92 7.36, 190.97 27.59 M163.38 0 C180.8 -0.06, 189.64 8.78, 190.97 27.59 M190.97 27.59 C188.89 41.94, 191.42 59.53, 190.97 82.77 M190.97 27.59 C191.54 46.25, 191.82 64.64, 190.97 82.77 M190.97 82.77 C190.19 100.29, 183.6 110.67, 163.38 110.36 M190.97 82.77 C190.21 98.98, 179.73 112.1, 163.38 110.36 M163.38 110.36 C115.51 113.11, 65.81 113.26, 27.59 110.36 M163.38 110.36 C124.41 111.64, 84.74 110.75, 27.59 110.36 M27.59 110.36 C7.99 109.04, -0.7 99.58, 0 82.77 M27.59 110.36 C7.61 110.8, -0.89 99.64, 0 82.77 M0 82.77 C-1.1 69.85, -1.48 53.51, 0 27.59 M0 82.77 C1.06 60.88, 0.81 38.75, 0 27.59 M0 27.59 C-1.46 10.78, 8.8 -0.82, 27.59 0 M0 27.59 C-0.21 8.33, 9.3 1.72, 27.59 0" stroke="#000000" stroke-width="1" fill="none"></path></g><g transform="translate(130.7213943753577 529.6594923304542) rotate(0 74.91993713378906 25)"><text x="74.91993713378906" y="17.52" font-family="Virgil, Segoe UI Emoji" font-size="20px" fill="#000000" text-anchor="middle" style="white-space: pre;" direction="ltr" dominant-baseline="alphabetic">Write DA </text><text x="74.91993713378906" y="42.519999999999996" font-family="Virgil, Segoe UI Emoji" font-size="20px" fill="#000000" text-anchor="middle" style="white-space: pre;" direction="ltr" dominant-baseline="alphabetic">reference to L1</text></g><g stroke-linecap="round"><g transform="translate(198.92014010289677 400.0720899867042) rotate(0 0.6982421875 40.90576171875)"><path d="M0.68 0.57 C0.93 14.2, 2.14 68.38, 2.39 82.07 M-0.42 -0.18 C-0.32 13.04, 1.59 66.57, 1.97 80.08" stroke="#000000" stroke-width="1" fill="none"></path></g><g transform="translate(198.92014010289677 400.0720899867042) rotate(0 0.6982421875 40.90576171875)"><path d="M-7.33 56.87 C-2.87 67.13, 0.09 75.44, 1.97 80.08 M-7.33 56.87 C-2.93 65.93, 0 74.93, 1.97 80.08" stroke="#000000" stroke-width="1" fill="none"></path></g><g transform="translate(198.92014010289677 400.0720899867042) rotate(0 0.6982421875 40.90576171875)"><path d="M9.77 56.33 C7.86 66.88, 4.44 75.39, 1.97 80.08 M9.77 56.33 C7.73 65.49, 4.22 74.68, 1.97 80.08" stroke="#000000" stroke-width="1" fill="none"></path></g></g><mask></mask><g stroke-linecap="round" transform="translate(356.70334322789677 290.6873243617042) rotate(0 100.37841796875 48.2958984375)"><path d="M24.15 0 C67.54 -3.26, 116.27 -2.62, 176.61 0 C192.56 0.42, 198.55 11.14, 200.76 24.15 C204.59 35.15, 197.62 55.48, 200.76 72.44 C202.02 91.05, 195.3 93.7, 176.61 96.59 C137.93 96.14, 103.13 94.95, 24.15 96.59 C4.85 96.75, -2.31 91.04, 0 72.44 C-1.95 55.03, -1.7 42.45, 0 24.15 C-1.64 10.16, 9.76 1.09, 24.15 0" stroke="none" stroke-width="0" fill="#ffffff"></path><path d="M24.15 0 C76.43 2.47, 129.62 0.76, 176.61 0 M24.15 0 C67.81 1.13, 112.55 0.3, 176.61 0 M176.61 0 C192.26 -0.69, 199.78 9.03, 200.76 24.15 M176.61 0 C191.82 1.82, 200.33 7.17, 200.76 24.15 M200.76 24.15 C201 36.97, 200.97 54.23, 200.76 72.44 M200.76 24.15 C201.84 39.12, 200.61 52.91, 200.76 72.44 M200.76 72.44 C198.78 89.48, 192.07 98, 176.61 96.59 M200.76 72.44 C202.74 88.56, 193.57 97.86, 176.61 96.59 M176.61 96.59 C143.88 98.49, 112.31 95.4, 24.15 96.59 M176.61 96.59 C115.87 98.01, 54.52 97.78, 24.15 96.59 M24.15 96.59 C9.87 96.03, 1.39 88.6, 0 72.44 M24.15 96.59 C7.17 97.19, -0.27 88.29, 0 72.44 M0 72.44 C0.01 55.14, -1.75 39.75, 0 24.15 M0 72.44 C0.48 57.88, -0.8 44.43, 0 24.15 M0 24.15 C1.72 6.64, 7.66 -1.88, 24.15 0 M0 24.15 C-2.06 8.6, 9.49 1.98, 24.15 0" stroke="#000000" stroke-width="1" fill="none"></path></g><g transform="translate(407.5218017850257 326.4832227992042) rotate(0 49.559959411621094 12.5)"><text x="49.559959411621094" y="17.52" font-family="Virgil, Segoe UI Emoji" font-size="20px" fill="#000000" text-anchor="middle" style="white-space: pre;" direction="ltr" dominant-baseline="alphabetic">DA server</text></g><g stroke-linecap="round"><g transform="translate(309.99924166539677 340.7410352992042) rotate(0 16.29638671875 1.68212890625)"><path d="M-0.25 -0.39 C5.21 0.29, 27.46 3.15, 32.9 3.72 M0.63 0.6 C6.02 1.15, 27.41 2.46, 32.63 2.94" stroke="#000000" stroke-width="1" fill="none"></path></g><g transform="translate(309.99924166539677 340.7410352992042) rotate(0 16.29638671875 1.68212890625)"><path d="M16.86 7.38 C21.49 6.41, 27.81 4.21, 32.63 2.94 M16.86 7.38 C20.52 6.07, 24.09 4.99, 32.63 2.94" stroke="#000000" stroke-width="1" fill="none"></path></g><g transform="translate(309.99924166539677 340.7410352992042) rotate(0 16.29638671875 1.68212890625)"><path d="M17.69 -3.79 C22.02 -1.08, 28.06 0.4, 32.63 2.94 M17.69 -3.79 C21.16 -2.44, 24.54 -0.87, 32.63 2.94" stroke="#000000" stroke-width="1" fill="none"></path></g></g><mask></mask><g stroke-linecap="round" transform="translate(680.9708505433318 56.412955532189244) rotate(0 105.8740234375 45.7080078125)"><path d="M22.85 0 C68.66 -2.72, 116.44 0.05, 188.89 0 C206.88 -0.88, 213.54 5.67, 211.75 22.85 C215.43 39.74, 211.35 59.31, 211.75 68.56 C212.87 82.3, 204.56 90.75, 188.89 91.42 C152.79 96.5, 118.98 93.88, 22.85 91.42 C6.89 87.82, 0.27 80.43, 0 68.56 C-3.82 57.84, 0.5 43.02, 0 22.85 C0.08 10.19, 9.75 1.97, 22.85 0" stroke="none" stroke-width="0" fill="#ffffff"></path><path d="M22.85 0 C71.06 -0.61, 119.57 1.56, 188.89 0 M22.85 0 C69.8 0.59, 114.43 1.6, 188.89 0 M188.89 0 C204.31 -0.99, 212.22 6.26, 211.75 22.85 M188.89 0 C202.17 -1.15, 211.6 5.73, 211.75 22.85 M211.75 22.85 C210.79 32.32, 213.15 42.64, 211.75 68.56 M211.75 22.85 C211.77 39.03, 212.97 56.58, 211.75 68.56 M211.75 68.56 C210.88 85.32, 204.71 90.2, 188.89 91.42 M211.75 68.56 C210.84 84.16, 205.17 91.25, 188.89 91.42 M188.89 91.42 C157.13 90.95, 122.6 92.79, 22.85 91.42 M188.89 91.42 C143.85 91.16, 97.83 91.95, 22.85 91.42 M22.85 91.42 C6.63 90.4, 1.03 84.78, 0 68.56 M22.85 91.42 C7.84 90.88, 0.53 84.25, 0 68.56 M0 68.56 C-1.77 49.55, -1.54 33.82, 0 22.85 M0 68.56 C-0.12 55.32, -0.35 44.36, 0 22.85 M0 22.85 C0.04 6.35, 9 1.58, 22.85 0 M0 22.85 C1.1 5.54, 9.03 1.01, 22.85 0" stroke="#000000" stroke-width="1" fill="none"></path></g><g transform="translate(748.8548913758514 89.62096334468924) rotate(0 37.98998260498047 12.5)"><text x="37.98998260498047" y="17.52" font-family="Virgil, Segoe UI Emoji" font-size="20px" fill="#000000" text-anchor="middle" style="white-space: pre;" direction="ltr" dominant-baseline="alphabetic">AWS S3</text></g><g stroke-linecap="round"><g transform="translate(570.5072497179372 280.015830709021) rotate(0 48.73040269205194 -66.1269403481466)"><path d="M0.15 0.37 C16.41 -21.42, 80.67 -109.78, 97.08 -131.86 M-1.23 -0.48 C14.88 -22.55, 79.31 -112.07, 95.94 -133.77" stroke="#000000" stroke-width="1" fill="none"></path></g><g transform="translate(570.5072497179372 280.015830709021) rotate(0 48.73040269205194 -66.1269403481466)"><path d="M88.85 -109.8 C91.52 -116.65, 93.4 -120.24, 95.94 -133.77 M88.85 -109.8 C91.69 -117.04, 93.84 -125.1, 95.94 -133.77" stroke="#000000" stroke-width="1" fill="none"></path></g><g transform="translate(570.5072497179372 280.015830709021) rotate(0 48.73040269205194 -66.1269403481466)"><path d="M75.1 -119.96 C81.24 -124.2, 86.69 -125.15, 95.94 -133.77 M75.1 -119.96 C82.16 -123.91, 88.6 -128.8, 95.94 -133.77" stroke="#000000" stroke-width="1" fill="none"></path></g></g><mask></mask><g stroke-linecap="round" transform="translate(680.9708505433318 427.42799037530403) rotate(0 105.8740234375 45.7080078125)"><path d="M22.85 0 C68.4 -0.29, 111.71 0.24, 188.89 0 C205.9 2.45, 211.89 5.02, 211.75 22.85 C209.02 38.84, 212.46 50.7, 211.75 68.56 C211.76 82.88, 204.73 94.72, 188.89 91.42 C133.12 93.46, 68.28 89.3, 22.85 91.42 C8.04 91.76, 1.22 82.65, 0 68.56 C-1.6 50.8, -1.48 36.35, 0 22.85 C2.69 7.83, 5.75 -0.53, 22.85 0" stroke="none" stroke-width="0" fill="#ffffff"></path><path d="M22.85 0 C67.13 1.39, 112.24 -0.15, 188.89 0 M22.85 0 C72.04 1.4, 123 0.73, 188.89 0 M188.89 0 C202.27 -0.22, 212.22 6.24, 211.75 22.85 M188.89 0 C204.83 1.38, 211.5 8.9, 211.75 22.85 M211.75 22.85 C210.78 32.54, 212.9 43.3, 211.75 68.56 M211.75 22.85 C212.21 39.44, 211.26 53.6, 211.75 68.56 M211.75 68.56 C211.91 83.85, 205.18 92.03, 188.89 91.42 M211.75 68.56 C212.8 81.98, 204.98 91.85, 188.89 91.42 M188.89 91.42 C134.38 88.92, 80.69 91.12, 22.85 91.42 M188.89 91.42 C139.46 91.78, 88.05 92.36, 22.85 91.42 M22.85 91.42 C9.19 91.96, -0.22 82.24, 0 68.56 M22.85 91.42 C7.37 91.89, 0.92 82.98, 0 68.56 M0 68.56 C1.3 57.29, -1.97 49.56, 0 22.85 M0 68.56 C-0.09 58.23, 0.77 46.37, 0 22.85 M0 22.85 C-1.13 7.91, 7.23 -1.02, 22.85 0 M0 22.85 C-0.6 5.47, 7.98 -1.12, 22.85 0" stroke="#000000" stroke-width="1" fill="none"></path></g><g transform="translate(762.9648919862029 460.63599818780403) rotate(0 23.879981994628906 12.5)"><text x="23.879981994628906" y="17.52" font-family="Virgil, Segoe UI Emoji" font-size="20px" fill="#000000" text-anchor="middle" style="white-space: pre;" direction="ltr" dominant-baseline="alphabetic">IPFS</text></g><g stroke-linecap="round"><g transform="translate(574.7012011344577 399.71796346145766) rotate(0 46.821331184643896 36.6270927201615)"><path d="M0.12 0.41 C15.84 12.66, 77.77 61.51, 93.26 73.65 M-1.28 -0.42 C14.34 11.45, 76.56 59.23, 92.11 71.74" stroke="#000000" stroke-width="1" fill="none"></path></g><g transform="translate(574.7012011344577 399.71796346145766) rotate(0 46.821331184643896 36.6270927201615)"><path d="M68.34 63.98 C74.03 64.95, 79.01 66.25, 92.11 71.74 M68.34 63.98 C74.97 66.01, 83.42 68.9, 92.11 71.74" stroke="#000000" stroke-width="1" fill="none"></path></g><g transform="translate(574.7012011344577 399.71796346145766) rotate(0 46.821331184643896 36.6270927201615)"><path d="M78.89 50.52 C82.37 54.33, 85.14 58.46, 92.11 71.74 M78.89 50.52 C82.25 56.55, 87.52 63.51, 92.11 71.74" stroke="#000000" stroke-width="1" fill="none"></path></g></g><mask></mask><g stroke-linecap="round" transform="translate(680.9708505433318 551.0996686563421) rotate(0 105.8740234375 45.7080078125)"><path d="M22.85 0 C71.31 -4.48, 116.87 -1.13, 188.89 0 C205.23 -1.44, 212.84 7.01, 211.75 22.85 C209.08 29.88, 213.42 41.87, 211.75 68.56 C214.03 80.6, 206.26 90.35, 188.89 91.42 C136.68 91.42, 77.25 95.15, 22.85 91.42 C4.66 93.49, 1.27 87.12, 0 68.56 C-1.03 55.04, 1.11 50.28, 0 22.85 C-0.56 5.14, 6.62 3.58, 22.85 0" stroke="none" stroke-width="0" fill="#ffffff"></path><path d="M22.85 0 C56.11 -0.76, 90.68 -0.47, 188.89 0 M22.85 0 C64.3 -0.58, 106.76 0.85, 188.89 0 M188.89 0 C204.82 -0.85, 213.72 5.75, 211.75 22.85 M188.89 0 C206.42 0.09, 213.83 8.4, 211.75 22.85 M211.75 22.85 C213.56 37.16, 212.53 46.78, 211.75 68.56 M211.75 22.85 C211.8 38.66, 211.64 54.97, 211.75 68.56 M211.75 68.56 C212.19 83.04, 205.2 90.56, 188.89 91.42 M211.75 68.56 C212.6 81.78, 203.68 93.22, 188.89 91.42 M188.89 91.42 C133.92 92.34, 81.69 92.49, 22.85 91.42 M188.89 91.42 C145.84 91.86, 101.64 90.54, 22.85 91.42 M22.85 91.42 C5.67 91.04, 0.89 84.77, 0 68.56 M22.85 91.42 C7.28 89.81, -2 83.03, 0 68.56 M0 68.56 C1.88 59.6, -0.82 47.03, 0 22.85 M0 68.56 C0.77 53.51, -0.58 37.64, 0 22.85 M0 22.85 C-0.7 9.23, 6.46 0.46, 22.85 0 M0 22.85 C0.08 8.04, 8.72 0.41, 22.85 0" stroke="#000000" stroke-width="1" fill="none"></path></g><g transform="translate(748.4049020570037 584.3076764688421) rotate(0 38.439971923828125 12.5)"><text x="38.439971923828125" y="17.52" font-family="Virgil, Segoe UI Emoji" font-size="20px" fill="#000000" text-anchor="middle" style="white-space: pre;" direction="ltr" dominant-baseline="alphabetic">EigenDA</text></g><g stroke-linecap="round"><g transform="translate(563.7239294839874 406.0877650207253) rotate(0 44.408521141916935 77.75888360473982)"><path d="M0.31 0.98 C14.96 26.78, 73.35 129.51, 88.02 155.32" stroke="#000000" stroke-width="1.5" fill="none" stroke-dasharray="8 9"></path></g><g transform="translate(563.7239294839874 406.0877650207253) rotate(0 44.408521141916935 77.75888360473982)"><path d="M68.98 139.12 C76.58 142.76, 80.51 148.28, 88.02 155.32" stroke="#000000" stroke-width="1.5" fill="none"></path></g><g transform="translate(563.7239294839874 406.0877650207253) rotate(0 44.408521141916935 77.75888360473982)"><path d="M83.85 130.67 C86.87 136.97, 86.21 145.1, 88.02 155.32" stroke="#000000" stroke-width="1.5" fill="none"></path></g></g><mask></mask><g stroke-linecap="round"><g transform="translate(199.66232760289677 620.9673231410011) rotate(0 0.96435546875 23.22509765625)"><path d="M0.43 0.19 C0.77 7.92, 1.79 39.1, 2.1 46.87 M-0.01 -0.18 C0.26 7.63, 1.39 38.43, 1.75 46.12" stroke="#000000" stroke-width="1" fill="none"></path></g></g><mask></mask><g stroke-linecap="round"><g transform="translate(201.02278637154996 667.4089347603754) rotate(0 -67.87165026970979 0.07963717764528155)"><path d="M-0.11 0.64 C-22.52 0.35, -112.13 -0.61, -134.64 -0.88 M-1.63 -0.06 C-24.09 -0.32, -112.67 0.14, -135.01 0.12" stroke="#000000" stroke-width="1" fill="none"></path></g></g><mask></mask><g stroke-linecap="round"><g transform="translate(67.86019205263256 665.6338336122813) rotate(0 2.5333855787166613 -264.45775453014323)"><path d="M0.5 1.07 C1.08 -86.74, 3.52 -439.52, 4.11 -528.04 M-0.7 0.59 C0.19 -87.44, 5.14 -441.38, 6.32 -529.7" stroke="#000000" stroke-width="1" fill="none"></path></g></g><mask></mask><g stroke-linecap="round"><g transform="translate(71.83743428691741 136.1389352305755) rotate(0 14.294296306335127 0.06232474772241403)"><path d="M0.27 0.1 C4.99 0.04, 23.35 -0.19, 28.16 -0.18 M-0.25 -0.33 C4.65 -0.34, 24.29 0.18, 29.17 0.36" stroke="#000000" stroke-width="1" fill="none"></path></g><g transform="translate(71.83743428691741 136.1389352305755) rotate(0 14.294296306335127 0.06232474772241403)"><path d="M15.59 4.84 C19.38 3.03, 22.52 3.03, 29.17 0.36 M15.59 4.84 C19.54 3.61, 23.99 2.04, 29.17 0.36" stroke="#000000" stroke-width="1" fill="none"></path></g><g transform="translate(71.83743428691741 136.1389352305755) rotate(0 14.294296306335127 0.06232474772241403)"><path d="M15.89 -4.93 C19.61 -4.1, 22.67 -1.46, 29.17 0.36 M15.89 -4.93 C19.79 -3.21, 24.14 -1.83, 29.17 0.36" stroke="#000000" stroke-width="1" fill="none"></path></g></g><mask></mask><g stroke-linecap="round" transform="translate(680.9708505433318 180.08463381322758) rotate(0 105.8740234375 45.7080078125)"><path d="M22.85 0 C67.25 -1.41, 115.34 1.26, 188.89 0 C203.83 0.6, 215.25 4.95, 211.75 22.85 C213.29 33.82, 208.28 46.56, 211.75 68.56 C214.69 80.68, 202.07 89.22, 188.89 91.42 C134.64 95.47, 79.9 90.05, 22.85 91.42 C4.41 89.31, 0.8 85.58, 0 68.56 C-3.91 51.1, 2.58 36.6, 0 22.85 C-2.11 10.63, 5.06 -1.67, 22.85 0" stroke="none" stroke-width="0" fill="#ffffff"></path><path d="M22.85 0 C65.5 0.08, 107.11 1.31, 188.89 0 M22.85 0 C76.31 1.02, 129.28 1.66, 188.89 0 M188.89 0 C202.66 1.17, 211.9 7.26, 211.75 22.85 M188.89 0 C202.26 0.68, 211.32 7.96, 211.75 22.85 M211.75 22.85 C211.6 38.82, 213.24 54.1, 211.75 68.56 M211.75 22.85 C212.54 37.97, 211.14 55.82, 211.75 68.56 M211.75 68.56 C210.83 82.4, 205.93 93.36, 188.89 91.42 M211.75 68.56 C213.02 81.77, 206.18 92.71, 188.89 91.42 M188.89 91.42 C145.34 91.84, 102.91 91.51, 22.85 91.42 M188.89 91.42 C152.3 92.53, 113.16 93.46, 22.85 91.42 M22.85 91.42 C5.91 92.71, -1.39 85.25, 0 68.56 M22.85 91.42 C6.48 93.05, 1.58 84.34, 0 68.56 M0 68.56 C-0.57 56.08, 2.15 39.78, 0 22.85 M0 68.56 C-0.82 52.11, -0.16 34.27, 0 22.85 M0 22.85 C-0.29 8, 6.49 0.53, 22.85 0 M0 22.85 C0.85 8.91, 8.67 1.63, 22.85 0" stroke="#000000" stroke-width="1" fill="none"></path></g><g transform="translate(718.0349298279998 213.29264162572758) rotate(0 68.80994415283203 12.5)"><text x="68.80994415283203" y="17.52" font-family="Virgil, Segoe UI Emoji" font-size="20px" fill="#000000" text-anchor="middle" style="white-space: pre;" direction="ltr" dominant-baseline="alphabetic">Cloudflare R2</text></g><g stroke-linecap="round"><g transform="translate(571.5458719863254 313.83173246420165) rotate(0 49.829404366053495 -39.83754308008815)"><path d="M0.93 1.13 C17.31 -12.44, 82.45 -67.32, 98.78 -80.74 M-0.04 0.67 C16.67 -12.84, 84.12 -66.66, 101.04 -79.77" stroke="#1e1e1e" stroke-width="1" fill="none"></path></g><g transform="translate(571.5458719863254 313.83173246420165) rotate(0 49.829404366053495 -39.83754308008815)"><path d="M87.88 -58.51 C94.15 -67.35, 94.99 -74.33, 101.04 -79.77 M87.88 -58.51 C92.68 -64.57, 95.32 -72.39, 101.04 -79.77" stroke="#1e1e1e" stroke-width="1" fill="none"></path></g><g transform="translate(571.5458719863254 313.83173246420165) rotate(0 49.829404366053495 -39.83754308008815)"><path d="M77.29 -71.94 C87.26 -76.26, 91.72 -78.65, 101.04 -79.77 M77.29 -71.94 C85.58 -73.76, 91.62 -77.25, 101.04 -79.77" stroke="#1e1e1e" stroke-width="1" fill="none"></path></g></g><mask></mask><g stroke-linecap="round" transform="translate(680.9708505433318 303.7563120942659) rotate(0 105.8740234375 45.7080078125)"><path d="M22.85 0 C54.78 0.03, 90.57 1.31, 188.89 0 C207.06 3.07, 208.51 7.52, 211.75 22.85 C209.03 33.11, 209.98 43.97, 211.75 68.56 C209.09 82.24, 206.27 88.94, 188.89 91.42 C129.93 94.7, 80.97 92.4, 22.85 91.42 C5.95 92.51, -1.16 84.97, 0 68.56 C2.2 53.39, -0.89 33.7, 0 22.85 C-0.52 6, 8.23 -0.48, 22.85 0" stroke="none" stroke-width="0" fill="#ffffff"></path><path d="M22.85 0 C72.69 -1.53, 117.31 -0.83, 188.89 0 M22.85 0 C86.07 -0.76, 148.96 -0.85, 188.89 0 M188.89 0 C202.41 1.79, 212.99 9.55, 211.75 22.85 M188.89 0 C203.66 1.66, 212.39 5.34, 211.75 22.85 M211.75 22.85 C212.76 38.72, 212.27 51.54, 211.75 68.56 M211.75 22.85 C211.32 34.97, 211.62 46.33, 211.75 68.56 M211.75 68.56 C211.4 82.78, 203.17 90.9, 188.89 91.42 M211.75 68.56 C210.46 82.42, 206.03 92.68, 188.89 91.42 M188.89 91.42 C149.96 91.7, 106.68 92.82, 22.85 91.42 M188.89 91.42 C134.25 91.36, 80.61 92.36, 22.85 91.42 M22.85 91.42 C8.53 89.96, 1.42 83.65, 0 68.56 M22.85 91.42 C8.31 91.6, -1.28 81.97, 0 68.56 M0 68.56 C-0.91 53.6, 1.17 40.29, 0 22.85 M0 68.56 C0.52 55.28, 0.99 41.78, 0 22.85 M0 22.85 C1.19 9.24, 5.75 -0.49, 22.85 0 M0 22.85 C0.83 6.19, 7.6 -0.69, 22.85 0" stroke="#000000" stroke-width="1" fill="none"></path></g><g transform="translate(730.2749200623748 336.9643199067659) rotate(0 56.56995391845703 12.5)"><text x="56.56995391845703" y="17.52" font-family="Virgil, Segoe UI Emoji" font-size="20px" fill="#000000" text-anchor="middle" style="white-space: pre;" direction="ltr" dominant-baseline="alphabetic">Local Disks</text></g><g stroke-linecap="round"><g transform="translate(570.1703460867793 357.2318632032634) rotate(0 47.41601931639343 -2.388542853115041)"><path d="M0.99 -0.05 C16.83 -0.96, 79.89 -3.86, 95.65 -4.58 M0.05 -1.13 C15.75 -2.5, 79.29 -5.7, 95.12 -6.6" stroke="#1e1e1e" stroke-width="1" fill="none"></path></g><g transform="translate(570.1703460867793 357.2318632032634) rotate(0 47.41601931639343 -2.388542853115041)"><path d="M72.12 3.2 C80.05 0.92, 88.55 -2.77, 95.12 -6.6 M72.12 3.2 C78.99 0.71, 87.55 -2.51, 95.12 -6.6" stroke="#1e1e1e" stroke-width="1" fill="none"></path></g><g transform="translate(570.1703460867793 357.2318632032634) rotate(0 47.41601931639343 -2.388542853115041)"><path d="M71.21 -13.87 C79.58 -10.16, 88.4 -7.85, 95.12 -6.6 M71.21 -13.87 C78.42 -10.7, 87.29 -8.25, 95.12 -6.6" stroke="#1e1e1e" stroke-width="1" fill="none"></path></g></g><mask></mask><g stroke-linecap="round" transform="translate(928.9511172188613 551.0996686563421) rotate(0 105.8740234375 45.7080078125)"><path d="M22.85 0 C81.45 1.27, 137.37 2.9, 188.89 0 C201.5 0.45, 208.88 6.46, 211.75 22.85 C208.43 35.77, 213.68 49.15, 211.75 68.56 C213.08 81.39, 206.86 94.78, 188.89 91.42 C140.97 89.39, 100.59 91.79, 22.85 91.42 C6.77 87.87, 0.62 81, 0 68.56 C-2.38 60.61, 2.63 46.57, 0 22.85 C-2.7 9.92, 7.78 -0.52, 22.85 0" stroke="none" stroke-width="0" fill="#ffffff"></path><path d="M22.85 0 C64.32 -1.43, 109.67 0.93, 188.89 0 M22.85 0 C79.29 1.47, 133.87 0.81, 188.89 0 M188.89 0 C202.87 1.24, 211.69 9.15, 211.75 22.85 M188.89 0 C202.01 1.36, 213.03 5.68, 211.75 22.85 M211.75 22.85 C212.1 39.64, 210.28 53.9, 211.75 68.56 M211.75 22.85 C211.1 32.1, 210.4 41.86, 211.75 68.56 M211.75 68.56 C213.45 83.76, 204.34 90.25, 188.89 91.42 M211.75 68.56 C213.1 83.14, 204.95 89.76, 188.89 91.42 M188.89 91.42 C148.78 92.18, 107.04 89.84, 22.85 91.42 M188.89 91.42 C130.57 90.38, 73.61 89.97, 22.85 91.42 M22.85 91.42 C6.65 90.07, -1.49 85.69, 0 68.56 M22.85 91.42 C8.01 92.67, -1.97 82.17, 0 68.56 M0 68.56 C-0.46 51.33, -1.04 35.21, 0 22.85 M0 68.56 C-0.47 57.78, -0.71 48.94, 0 22.85 M0 22.85 C0.54 9.42, 8.08 1.48, 22.85 0 M0 22.85 C-1.31 9.37, 8.03 0.6, 22.85 0" stroke="#000000" stroke-width="1" fill="none"></path></g><g transform="translate(994.8751818550918 584.3076764688421) rotate(0 39.94995880126953 12.5)"><text x="39.94995880126953" y="17.52" font-family="Virgil, Segoe UI Emoji" font-size="20px" fill="#000000" text-anchor="middle" style="white-space: pre;" direction="ltr" dominant-baseline="alphabetic">Celestia</text></g><g stroke-linecap="round" transform="translate(680.9708505433318 674.7713469373803) rotate(0 105.8740234375 45.7080078125)"><path d="M22.85 0 C85.05 2.52, 148.24 -2.63, 188.89 0 C201.85 -3.04, 214.91 9.38, 211.75 22.85 C208.7 36.01, 213.12 54.89, 211.75 68.56 C210.24 82.83, 204.2 91.67, 188.89 91.42 C126.6 94.53, 60.31 90.32, 22.85 91.42 C10.36 88.85, 1.14 84.2, 0 68.56 C-1.01 59.79, -3.58 51.53, 0 22.85 C2.14 8.38, 5.47 -2.2, 22.85 0" stroke="none" stroke-width="0" fill="#ffffff"></path><path d="M22.85 0 C63.82 -1.44, 104.1 -1.21, 188.89 0 M22.85 0 C56.25 -0.47, 88.74 0.17, 188.89 0 M188.89 0 C205.87 -0.58, 209.86 9.41, 211.75 22.85 M188.89 0 C204.66 1.21, 210.03 9.04, 211.75 22.85 M211.75 22.85 C210.21 34.09, 210.49 50.75, 211.75 68.56 M211.75 22.85 C211.53 40, 211.19 56.53, 211.75 68.56 M211.75 68.56 C213.04 83.75, 206.07 91.39, 188.89 91.42 M211.75 68.56 C209.57 84.68, 203.83 92.55, 188.89 91.42 M188.89 91.42 C148 92.13, 109.46 93.96, 22.85 91.42 M188.89 91.42 C156.14 93.62, 122.28 92.81, 22.85 91.42 M22.85 91.42 C6.61 90.94, -0.59 83.14, 0 68.56 M22.85 91.42 C9.13 90.28, 1.87 85.02, 0 68.56 M0 68.56 C2.06 56.35, -1.29 42.95, 0 22.85 M0 68.56 C-0.51 55.37, 0.12 41.97, 0 22.85 M0 22.85 C1.88 8.09, 9.01 -1.71, 22.85 0 M0 22.85 C-1.16 7.61, 9.19 1.45, 22.85 0" stroke="#000000" stroke-width="1" fill="none"></path></g><g transform="translate(708.3249460023162 707.9793547498803) rotate(0 78.51992797851562 12.5)"><text x="78.51992797851562" y="17.52" font-family="Virgil, Segoe UI Emoji" font-size="20px" fill="#000000" text-anchor="middle" style="white-space: pre;" direction="ltr" dominant-baseline="alphabetic">EIP-4844 blobs</text></g><g stroke-linecap="round" transform="translate(928.9649338128202 674.7713469373803) rotate(0 105.8740234375 45.7080078125)"><path d="M22.85 0 C69.7 3.76, 118.89 1.6, 188.89 0 C204.95 2.2, 208.24 9.08, 211.75 22.85 C210.58 30.22, 215.51 45.11, 211.75 68.56 C214.16 86.72, 201.22 88.15, 188.89 91.42 C125.98 91.11, 58.77 91.16, 22.85 91.42 C7.12 89.28, 1.04 83.62, 0 68.56 C-2.61 56.31, -0.8 45.35, 0 22.85 C1.03 5.3, 10.72 -0.22, 22.85 0" stroke="none" stroke-width="0" fill="#ffffff"></path><path d="M22.85 0 C62.84 2.21, 102.35 0.99, 188.89 0 M22.85 0 C66.5 -0.57, 109.64 -0.33, 188.89 0 M188.89 0 C204.28 -1.52, 211.53 7.6, 211.75 22.85 M188.89 0 C203.01 1.8, 209.8 6.47, 211.75 22.85 M211.75 22.85 C212.89 36.67, 211.99 49.76, 211.75 68.56 M211.75 22.85 C212.11 39.54, 211.56 57.93, 211.75 68.56 M211.75 68.56 C209.79 83.68, 204.93 92.52, 188.89 91.42 M211.75 68.56 C213.09 81.84, 206.12 91.67, 188.89 91.42 M188.89 91.42 C153.2 89.35, 121.01 92.12, 22.85 91.42 M188.89 91.42 C154.27 92.86, 119.92 91.78, 22.85 91.42 M22.85 91.42 C5.94 89.8, -1.62 85.73, 0 68.56 M22.85 91.42 C7.36 89.14, 0.54 82.81, 0 68.56 M0 68.56 C2 55.27, 1.73 43.28, 0 22.85 M0 68.56 C-0.68 53.05, 1.07 38.94, 0 22.85 M0 22.85 C1.33 8.68, 8.07 0.13, 22.85 0 M0 22.85 C0.1 6.7, 6.27 1.45, 22.85 0" stroke="#000000" stroke-width="1" fill="none"></path></g><g transform="translate(992.5989822747342 707.9793547498803) rotate(0 42.23997497558594 12.5)"><text x="42.23997497558594" y="17.52" font-family="Virgil, Segoe UI Emoji" font-size="20px" fill="#000000" text-anchor="middle" style="white-space: pre;" direction="ltr" dominant-baseline="alphabetic">Near DA</text></g><g stroke-linecap="round" transform="translate(667.676789375193 533.75499568657) rotate(0 243.2808593615664 136.83263827618475)"><path d="M32 0 C164.7 -0.22, 295.63 1.06, 454.56 0 M454.56 0 C474.53 1.35, 487.72 9.01, 486.56 32 M486.56 32 C483.89 113.82, 484.93 200.03, 486.56 241.67 M486.56 241.67 C485.54 263.87, 476.79 274.32, 454.56 273.67 M454.56 273.67 C289.43 272.8, 123.77 271.89, 32 273.67 M32 273.67 C9.04 272.57, -0.84 261.44, 0 241.67 M0 241.67 C-0.02 181.65, 0.81 120.56, 0 32 M0 32 C1.72 11.36, 11.92 1.17, 32 0" stroke="#1e1e1e" stroke-width="1.5" fill="none" stroke-dasharray="8 9"></path></g><g transform="translate(853.7066721742594 779.4202722389396) rotate(0 57.2509765625 11.5)"><text x="57.2509765625" y="18.400390625" font-family="Helvetica, Segoe UI Emoji" font-size="20px" fill="#1e1e1e" text-anchor="middle" style="white-space: pre;" direction="ltr" dominant-baseline="alphabetic">under review</text></g></svg>