<svg version="1.1" xmlns="http://www.w3.org/2000/svg" viewBox="0 0 1007.7367430118557 747.08984375" width="1007.7367430118557" height="747.08984375">
  <!-- svg-source:excalidraw -->
  
  <defs>
    <style class="style-fonts">
      @font-face {
        font-family: "Virgil";
        src: url("https://excalidraw.com/Virgil.woff2");
      }
      @font-face {
        font-family: "Cascadia";
        src: url("https://excalidraw.com/Cascadia.woff2");
      }
      @font-face {
        font-family: "Assistant";
        src: url("https://excalidraw.com/Assistant-Regular.woff2");
      }
    </style>
    
  </defs>
  <rect x="0" y="0" width="1007.7367430118557" height="747.08984375" fill="#ffffff"></rect><g stroke-linecap="round" transform="translate(10 10) rotate(0 493.8683715059278 363.544921875)"><path d="M32 0 C285.89 5.39, 543.1 6.71, 955.74 0 C974.66 -3.52, 986.76 14.11, 987.74 32 C986.02 229.02, 987.72 427.66, 987.74 695.09 C987.26 719.89, 973.71 727.23, 955.74 727.09 C739.36 725.37, 522.43 726.16, 32 727.09 C10.48 728.52, -0.48 716.6, 0 695.09 C0.5 473.74, 0.5 251.24, 0 32 C-2.6 11.58, 10.74 -0.18, 32 0" stroke="none" stroke-width="0" fill="#ffffff"></path><path d="M32 0 C382.14 -1.59, 732.03 -0.38, 955.74 0 M32 0 C263.62 -2.69, 494.67 -2.37, 955.74 0 M955.74 0 C977.01 0.27, 987.18 11.25, 987.74 32 M955.74 0 C976.74 1.87, 986.7 10.73, 987.74 32 M987.74 32 C985.03 185.72, 985.24 338.81, 987.74 695.09 M987.74 32 C986.04 281.57, 986.16 531.09, 987.74 695.09 M987.74 695.09 C989.68 716.43, 978.27 728.23, 955.74 727.09 M987.74 695.09 C989.47 714.98, 977.87 724.97, 955.74 727.09 M955.74 727.09 C653.16 727.84, 351.39 728.2, 32 727.09 M955.74 727.09 C711.21 730.09, 467.11 729.96, 32 727.09 M32 727.09 C11.91 728.46, -1.7 716.5, 0 695.09 M32 727.09 C11.74 725.74, -1.29 714.28, 0 695.09 M0 695.09 C-2.57 459.26, -2.71 223.55, 0 32 M0 695.09 C1.15 515.04, 1.72 334.2, 0 32 M0 32 C1.53 11.01, 9.75 -1.92, 32 0 M0 32 C2.07 12.28, 12.66 -1.64, 32 0" stroke="#000000" stroke-width="1" fill="none"></path></g><g transform="translate(465.3084044649113 15) rotate(0 38.559967041015625 12.5)"><text x="38.559967041015625" y="17.52" font-family="Virgil, Segoe UI Emoji" font-size="20px" fill="#000000" text-anchor="middle" style="white-space: pre;" direction="ltr" dominant-baseline="alphabetic">Op node</text></g><g stroke-linecap="round" transform="translate(167.04821930672188 95.7793875165703) rotate(0 99.21174328927009 47.295318684617655)"><path d="M23.65 0 C76.25 1.45, 133.06 -0.62, 174.78 0 C193.35 1.41, 202 4.73, 198.42 23.65 C194.99 42.21, 197.98 55.07, 198.42 70.94 C201.5 89.69, 190.86 94.69, 174.78 94.59 C125.25 93.49, 75.93 93.62, 23.65 94.59 C5.76 91.6, 3.42 84.42, 0 70.94 C-2.76 57.74, -3.66 47.56, 0 23.65 C3.23 7.11, 10.74 -0.12, 23.65 0" stroke="none" stroke-width="0" fill="#ffffff"></path><path d="M23.65 0 C80.37 0.6, 134.57 1.7, 174.78 0 M23.65 0 C61.24 0.87, 98.59 -0.1, 174.78 0 M174.78 0 C191.77 0.92, 198.02 8.63, 198.42 23.65 M174.78 0 C188.72 0.26, 198.72 7.82, 198.42 23.65 M198.42 23.65 C199.69 38.92, 200.17 51.53, 198.42 70.94 M198.42 23.65 C197.52 38.7, 198.9 54.2, 198.42 70.94 M198.42 70.94 C198.2 85.77, 188.6 93.84, 174.78 94.59 M198.42 70.94 C197.83 88.81, 192.07 95.49, 174.78 94.59 M174.78 94.59 C139.03 97.14, 103.74 96.33, 23.65 94.59 M174.78 94.59 C143.69 96.24, 110.96 96.74, 23.65 94.59 M23.65 94.59 C9.43 95.9, -1.08 87.33, 0 70.94 M23.65 94.59 C5.71 95.86, -0.51 87.51, 0 70.94 M0 70.94 C-1.24 53.45, 1.43 39.48, 0 23.65 M0 70.94 C1.29 56.25, -0.01 42.42, 0 23.65 M0 23.65 C0.93 7.2, 6.35 -0.06, 23.65 0 M0 23.65 C-0.78 6.45, 9.58 -2.07, 23.65 0" stroke="#000000" stroke-width="1" fill="none"></path></g><g transform="translate(180.82001356034743 118.07470620118784) rotate(0 85.43994903564453 25)"><text x="85.43994903564453" y="17.52" font-family="Virgil, Segoe UI Emoji" font-size="20px" fill="#000000" text-anchor="middle" style="white-space: pre;" direction="ltr" dominant-baseline="alphabetic">Read L1 batcher </text><text x="85.43994903564453" y="42.519999999999996" font-family="Virgil, Segoe UI Emoji" font-size="20px" fill="#000000" text-anchor="middle" style="white-space: pre;" direction="ltr" dominant-baseline="alphabetic">inbox</text></g><g stroke-linecap="round" transform="translate(168.66031244476835 243.45472908236297) rotate(0 99.21174328927009 47.29531868461754)"><path d="M23.65 0 C67.66 -4.86, 105.91 -1.6, 174.78 0 C192.54 0.1, 199.42 6.37, 198.42 23.65 C195.94 36.43, 196.13 56.63, 198.42 70.94 C197.65 83.35, 192.06 92.49, 174.78 94.59 C124.27 94.13, 75.24 95.67, 23.65 94.59 C8.13 94.57, 2.76 88.12, 0 70.94 C2.66 56.77, -1.51 37.66, 0 23.65 C0.83 6.81, 8.77 -1.52, 23.65 0" stroke="none" stroke-width="0" fill="#ffffff"></path><path d="M23.65 0 C66.54 -0.3, 105.18 -1.91, 174.78 0 M23.65 0 C75.56 2.2, 129.09 0.58, 174.78 0 M174.78 0 C192.41 0.65, 197 8.28, 198.42 23.65 M174.78 0 C188.99 -1.06, 199.46 5.88, 198.42 23.65 M198.42 23.65 C200.43 41.89, 200.6 56.83, 198.42 70.94 M198.42 23.65 C198.43 33.15, 198.52 43.32, 198.42 70.94 M198.42 70.94 C197.52 85.2, 190.2 92.89, 174.78 94.59 M198.42 70.94 C197.5 88.94, 188.35 93.99, 174.78 94.59 M174.78 94.59 C135 94.54, 97.44 94.09, 23.65 94.59 M174.78 94.59 C126.81 94.5, 79.01 94.52, 23.65 94.59 M23.65 94.59 C7.29 93.79, -0.86 88.1, 0 70.94 M23.65 94.59 C9.11 93.12, -0.47 87.09, 0 70.94 M0 70.94 C1.82 60.56, -0.96 49.92, 0 23.65 M0 70.94 C-0.37 57.45, -0.93 43.93, 0 23.65 M0 23.65 C-1.93 8.01, 5.95 0.56, 23.65 0 M0 23.65 C2.19 7.95, 8.39 -0.7, 23.65 0" stroke="#000000" stroke-width="1" fill="none"></path></g><g transform="translate(174.7621314176322 278.25004776698074) rotate(0 93.10992431640625 12.5)"><text x="93.10992431640625" y="17.52" font-family="Virgil, Segoe UI Emoji" font-size="20px" fill="#000000" text-anchor="middle" style="white-space: pre;" direction="ltr" dominant-baseline="alphabetic">Finds DA reference</text></g><g stroke-linecap="round" transform="translate(170.0366418270114 405.9778780267984) rotate(0 99.21174328927009 47.29531868461777)"><path d="M23.65 0 C68.8 0.41, 109.08 -0.44, 174.78 0 C192.42 1.45, 200.49 7.3, 198.42 23.65 C196.53 42.54, 195.19 56.84, 198.42 70.94 C194.99 89.6, 188.12 97.83, 174.78 94.59 C136.11 97.49, 98.34 95.38, 23.65 94.59 C10.22 94.55, 1.02 86.24, 0 70.94 C-2.83 55.51, -3.52 38.64, 0 23.65 C-2.22 5.13, 6.2 -0.78, 23.65 0" stroke="none" stroke-width="0" fill="#ffffff"></path><path d="M23.65 0 C62.84 0.8, 101.08 0.39, 174.78 0 M23.65 0 C63.78 -0.92, 105.52 -0.74, 174.78 0 M174.78 0 C191.76 -0.58, 198.7 7.38, 198.42 23.65 M174.78 0 C192.26 -0.46, 196.25 7.25, 198.42 23.65 M198.42 23.65 C197.37 34.42, 196.72 48.57, 198.42 70.94 M198.42 23.65 C198.73 33.07, 198.14 44.71, 198.42 70.94 M198.42 70.94 C197.22 86.01, 191.77 92.6, 174.78 94.59 M198.42 70.94 C198.83 85.36, 192.12 94.5, 174.78 94.59 M174.78 94.59 C137.27 93.22, 101.56 93.2, 23.65 94.59 M174.78 94.59 C143.43 95.01, 112.14 94.54, 23.65 94.59 M23.65 94.59 C9.09 95.75, -1.54 87.85, 0 70.94 M23.65 94.59 C9.24 92.91, -1.09 84.9, 0 70.94 M0 70.94 C-0.41 59.23, 1.59 46.76, 0 23.65 M0 70.94 C0.17 53.45, -0.47 33.29, 0 23.65 M0 23.65 C1.92 6.08, 6.81 1.75, 23.65 0 M0 23.65 C0.68 5.67, 7.51 1.82, 23.65 0" stroke="#000000" stroke-width="1" fill="none"></path></g><g transform="translate(183.928438827219 428.27319671141595) rotate(0 85.3199462890625 25)"><text x="85.3199462890625" y="17.52" font-family="Virgil, Segoe UI Emoji" font-size="20px" fill="#000000" text-anchor="middle" style="white-space: pre;" direction="ltr" dominant-baseline="alphabetic">Read data from </text><text x="85.3199462890625" y="42.519999999999996" font-family="Virgil, Segoe UI Emoji" font-size="20px" fill="#000000" text-anchor="middle" style="white-space: pre;" direction="ltr" dominant-baseline="alphabetic">DA</text></g><g stroke-linecap="round"><g transform="translate(260.0423434278291 570.5261144229275) rotate(0 -68.68074720275217 -3.3309311442778835)"><path d="M-1.01 -0.13 C-24.1 -1.22, -115.64 -6.04, -138.38 -7.21 M0.65 -1.25 C-22.08 -2.12, -113.05 -5.15, -136.2 -5.96" stroke="#000000" stroke-width="1" fill="none"></path></g></g><mask></mask><g stroke-linecap="round"><g transform="translate(122.8883575826294 564.9384197674726) rotate(0 2.1708832082749723 -210.46303078423819)"><path d="M-1.02 -0.55 C-0.14 -70.77, 3.17 -351.21, 4.25 -421.45 M0.65 1.78 C1.45 -68.27, 2.48 -349.69, 3.25 -420.19" stroke="#000000" stroke-width="1" fill="none"></path></g></g><mask></mask><g stroke-linecap="round"><g transform="translate(126.1405950760327 143.43296887757765) rotate(0 14.394466612539873 0.06267045824552042)"><path d="M-0.04 -0.24 C4.92 -0.26, 24.47 -0.41, 29.3 -0.36 M-0.73 0.83 C4.24 0.88, 24.23 0.12, 29.13 0.09" stroke="#000000" stroke-width="1" fill="none"></path></g><g transform="translate(126.1405950760327 143.43296887757765) rotate(0 14.394466612539873 0.06267045824552042)"><path d="M15.72 5.34 C18.31 4.87, 20.87 3.25, 29.13 0.09 M15.72 5.34 C19.59 4.03, 23.64 2, 29.13 0.09" stroke="#000000" stroke-width="1" fill="none"></path></g><g transform="translate(126.1405950760327 143.43296887757765) rotate(0 14.394466612539873 0.06267045824552042)"><path d="M15.48 -4.51 C18.1 -2.85, 20.71 -2.35, 29.13 0.09 M15.48 -4.51 C19.45 -2.99, 23.57 -2.19, 29.13 0.09" stroke="#000000" stroke-width="1" fill="none"></path></g></g><mask></mask><g stroke-linecap="round"><g transform="translate(258.8087321005987 202.65767567397165) rotate(0 1.7655090670641584 15.325082533848558)"><path d="M0.49 -0.06 C1.05 5.06, 2.82 25.5, 3.27 30.55 M0.08 -0.57 C0.55 4.66, 2 26, 2.71 31.19" stroke="#000000" stroke-width="1" fill="none"></path></g><g transform="translate(258.8087321005987 202.65767567397165) rotate(0 1.7655090670641584 15.325082533848558)"><path d="M-3.94 17.27 C-2.17 20.83, -0.34 24.64, 2.71 31.19 M-3.94 17.27 C-2.08 20.02, -0.65 23.46, 2.71 31.19" stroke="#000000" stroke-width="1" fill="none"></path></g><g transform="translate(258.8087321005987 202.65767567397165) rotate(0 1.7655090670641584 15.325082533848558)"><path d="M6.56 16.26 C5.36 20.14, 4.21 24.24, 2.71 31.19 M6.56 16.26 C6.09 19.19, 5.19 22.85, 2.71 31.19" stroke="#000000" stroke-width="1" fill="none"></path></g></g><mask></mask><g stroke-linecap="round"><g transform="translate(261.2695046554636 350.34876896214064) rotate(0 0.8066695087527478 20.542716551719877)"><path d="M0.15 0.25 C0.34 7.07, 1.03 34.02, 1.3 40.77 M-0.43 -0.09 C-0.07 6.8, 2.05 34.43, 2.37 41.31" stroke="#000000" stroke-width="1" fill="none"></path></g><g transform="translate(261.2695046554636 350.34876896214064) rotate(0 0.8066695087527478 20.542716551719877)"><path d="M-5.87 22.48 C-2.74 28.05, -1.08 35.02, 2.37 41.31 M-5.87 22.48 C-4.34 26.5, -1.93 31.48, 2.37 41.31" stroke="#000000" stroke-width="1" fill="none"></path></g><g transform="translate(261.2695046554636 350.34876896214064) rotate(0 0.8066695087527478 20.542716551719877)"><path d="M8.16 21.59 C6.71 27.46, 3.79 34.73, 2.37 41.31 M8.16 21.59 C6.35 25.8, 5.4 30.98, 2.37 41.31" stroke="#000000" stroke-width="1" fill="none"></path></g></g><mask></mask><g stroke-linecap="round"><g transform="translate(257.8475027374716 515.1774837395492) rotate(0 0.9478643033962726 27.05547150950224)"><path d="M-0.27 0.64 C-0.16 9.63, 0.82 44.28, 1.35 53.16 M1.78 -0.07 C1.64 9.12, -0.03 44.99, 0.11 54.19" stroke="#000000" stroke-width="1" fill="none"></path></g></g><mask></mask><g stroke-linecap="round" transform="translate(426.69066664867387 407.0191507651898) rotate(0 100.37841796875 48.2958984375)"><path d="M24.15 0 C67.41 -2.59, 117.04 -1.03, 176.61 0 C195.97 2.93, 198.07 7.41, 200.76 24.15 C200.11 38.61, 198.29 54.28, 200.76 72.44 C197.32 86.36, 195.78 93.95, 176.61 96.59 C133.74 91.16, 91.76 97.64, 24.15 96.59 C10.07 93.77, -2.3 92.01, 0 72.44 C-2.79 54.44, -0.62 42.29, 0 24.15 C-3.12 11.54, 6.24 -3.4, 24.15 0" stroke="none" stroke-width="0" fill="#ffffff"></path><path d="M24.15 0 C65.55 1.64, 107.3 1.45, 176.61 0 M24.15 0 C62.01 -1.24, 101.59 -0.44, 176.61 0 M176.61 0 C191.58 0.94, 201.18 6.36, 200.76 24.15 M176.61 0 C193.76 -0.12, 201.17 9.14, 200.76 24.15 M200.76 24.15 C202.26 39.58, 200.39 53.7, 200.76 72.44 M200.76 24.15 C202.16 35.44, 201.69 46.56, 200.76 72.44 M200.76 72.44 C199.55 87.91, 193.07 97.39, 176.61 96.59 M200.76 72.44 C202.82 87.38, 190.71 97.89, 176.61 96.59 M176.61 96.59 C115.45 96.42, 54.05 99.9, 24.15 96.59 M176.61 96.59 C131.17 95.66, 84.65 95.88, 24.15 96.59 M24.15 96.59 C6.34 96.79, 1.71 87.68, 0 72.44 M24.15 96.59 C8.89 98.43, 0.11 87.73, 0 72.44 M0 72.44 C0.83 60.88, -0.62 48.8, 0 24.15 M0 72.44 C1.14 61.7, -0.04 50.4, 0 24.15 M0 24.15 C1.71 6.94, 7.72 -1.73, 24.15 0 M0 24.15 C0.66 6.17, 7.11 2.24, 24.15 0" stroke="#000000" stroke-width="1" fill="none"></path></g><g transform="translate(468.89913222484574 442.8150492026898) rotate(0 58.169952392578125 12.5)"><text x="58.169952392578125" y="17.52" font-family="Virgil, Segoe UI Emoji" font-size="20px" fill="#000000" text-anchor="middle" style="white-space: pre;" direction="ltr" dominant-baseline="alphabetic">DA endpoint</text></g><g stroke-linecap="round" transform="translate(732.1330086144208 277.3652153547155) rotate(0 105.8740234375 45.7080078125)"><path d="M22.85 0 C89.14 2.72, 147.99 -1.12, 188.89 0 C203.87 -3.29, 209.83 6.12, 211.75 22.85 C213.25 41.16, 212.08 57.93, 211.75 68.56 C211.52 80.59, 207.4 91.91, 188.89 91.42 C123.94 92.53, 56.35 87.72, 22.85 91.42 C7.88 90.13, -3.4 85.49, 0 68.56 C2.02 51.14, -1.54 36.87, 0 22.85 C-0.29 8.85, 11.09 -1.37, 22.85 0" stroke="none" stroke-width="0" fill="#ffffff"></path><path d="M22.85 0 C70.89 -2.92, 122.58 -1.41, 188.89 0 M22.85 0 C86.1 1.93, 148.94 0.6, 188.89 0 M188.89 0 C205.3 1.6, 213.54 8.58, 211.75 22.85 M188.89 0 C202.97 0.73, 211.67 6.76, 211.75 22.85 M211.75 22.85 C210.11 38.15, 210.21 55.22, 211.75 68.56 M211.75 22.85 C211.57 37.49, 210.95 52.27, 211.75 68.56 M211.75 68.56 C213.71 85.62, 204.81 91.87, 188.89 91.42 M211.75 68.56 C210.05 82.83, 206 93.36, 188.89 91.42 M188.89 91.42 C151.51 88.07, 113.9 91.4, 22.85 91.42 M188.89 91.42 C129.83 89.87, 68.26 89.57, 22.85 91.42 M22.85 91.42 C7.49 91.87, 0.13 82.27, 0 68.56 M22.85 91.42 C8.57 93.25, -0.6 85.28, 0 68.56 M0 68.56 C1.6 54.65, -1.6 42.25, 0 22.85 M0 68.56 C-0.26 56.09, 0.95 42.13, 0 22.85 M0 22.85 C-0.31 8.23, 8.75 -0.71, 22.85 0 M0 22.85 C2.12 7.15, 9 1.44, 22.85 0" stroke="#000000" stroke-width="1" fill="none"></path></g><g transform="translate(800.0170494469403 310.5732231672155) rotate(0 37.98998260498047 12.5)"><text x="37.98998260498047" y="17.52" font-family="Virgil, Segoe UI Emoji" font-size="20px" fill="#000000" text-anchor="middle" style="white-space: pre;" direction="ltr" dominant-baseline="alphabetic">AWS S3</text></g><g stroke-linecap="round" transform="translate(732.1330086144208 409.14083603652125) rotate(0 105.8740234375 45.7080078125)"><path d="M22.85 0 C55.4 1.23, 94.39 3.87, 188.89 0 C205.89 1.25, 213 7.69, 211.75 22.85 C214.96 38.3, 215.09 51.24, 211.75 68.56 C208.87 84.31, 207.63 89.8, 188.89 91.42 C141.71 92.05, 102.96 88.9, 22.85 91.42 C5.33 93.11, -1.63 81.93, 0 68.56 C3.53 53.6, -1.29 39.81, 0 22.85 C-0.97 4.99, 7.23 2.44, 22.85 0" stroke="none" stroke-width="0" fill="#ffffff"></path><path d="M22.85 0 C70.14 -0.06, 121.95 0.11, 188.89 0 M22.85 0 C57.11 -0.85, 89.06 -1.01, 188.89 0 M188.89 0 C204.06 -0.75, 212.67 6.22, 211.75 22.85 M188.89 0 C203.34 -1.52, 211.15 6.21, 211.75 22.85 M211.75 22.85 C212.79 38.23, 211.36 52.38, 211.75 68.56 M211.75 22.85 C212.54 35.09, 211.46 46.45, 211.75 68.56 M211.75 68.56 C213.38 85.49, 202.7 90.07, 188.89 91.42 M211.75 68.56 C209.79 84.46, 201.91 92.48, 188.89 91.42 M188.89 91.42 C125.54 94.73, 66.26 91.39, 22.85 91.42 M188.89 91.42 C142.86 91.03, 97.11 92.59, 22.85 91.42 M22.85 91.42 C7.09 92.71, -0.64 85.35, 0 68.56 M22.85 91.42 C9.29 93.67, -1.9 82.36, 0 68.56 M0 68.56 C-1.86 57.84, 2.02 50.64, 0 22.85 M0 68.56 C0.64 52.18, 1 36.31, 0 22.85 M0 22.85 C1.2 8.87, 9.24 0.21, 22.85 0 M0 22.85 C-1.7 9.56, 7.95 -0.86, 22.85 0" stroke="#000000" stroke-width="1" fill="none"></path></g><g transform="translate(814.1270500572919 442.3488438490217) rotate(0 23.879981994628906 12.5)"><text x="23.879981994628906" y="17.52" font-family="Virgil, Segoe UI Emoji" font-size="20px" fill="#000000" text-anchor="middle" style="white-space: pre;" direction="ltr" dominant-baseline="alphabetic">IPFS</text></g><g stroke-linecap="round"><g transform="translate(381.0130413814386 443.0360670616592) rotate(0 16.260600862679894 0.2681095491398082)"><path d="M0.21 -0.02 C5.77 0.23, 27.68 0.93, 32.98 1.03 M-0.35 -0.51 C5.22 -0.36, 27.22 0.03, 32.79 0.31" stroke="#000000" stroke-width="1" fill="none"></path></g><g transform="translate(381.0130413814386 443.0360670616592) rotate(0 16.260600862679894 0.2681095491398082)"><path d="M17.34 5.38 C20.85 4.88, 25.13 2.33, 32.79 0.31 M17.34 5.38 C21.63 4.31, 26.83 2.11, 32.79 0.31" stroke="#000000" stroke-width="1" fill="none"></path></g><g transform="translate(381.0130413814386 443.0360670616592) rotate(0 16.260600862679894 0.2681095491398082)"><path d="M17.69 -5.73 C21.07 -3.7, 25.28 -3.72, 32.79 0.31 M17.69 -5.73 C21.92 -3.42, 27.01 -2.24, 32.79 0.31" stroke="#000000" stroke-width="1" fill="none"></path></g></g><mask></mask><g stroke-linecap="round"><g transform="translate(413.056651167155 469.14554990188935) rotate(0 -15.879931993140417 0.28286596694488253)"><path d="M0.54 -0.16 C-4.75 -0.1, -26.69 -0.01, -32 0.16 M0.16 -0.72 C-5.2 -0.58, -27.29 0.54, -32.55 0.65" stroke="#000000" stroke-width="1" fill="none"></path></g><g transform="translate(413.056651167155 469.14554990188935) rotate(0 -15.879931993140417 0.28286596694488253)"><path d="M-17.84 -5.35 C-21.84 -4.08, -25.95 -1.54, -32.55 0.65 M-17.84 -5.35 C-23.47 -3.07, -28.31 -1.2, -32.55 0.65" stroke="#000000" stroke-width="1" fill="none"></path></g><g transform="translate(413.056651167155 469.14554990188935) rotate(0 -15.879931993140417 0.28286596694488253)"><path d="M-17.43 5.51 C-21.51 4, -25.72 3.77, -32.55 0.65 M-17.43 5.51 C-23.24 3.89, -28.23 1.86, -32.55 0.65" stroke="#000000" stroke-width="1" fill="none"></path></g></g><mask></mask><g stroke-linecap="round" transform="translate(732.1330086144208 540.9164567183275) rotate(0 105.8740234375 45.7080078125)"><path d="M22.85 0 C78.71 0.87, 135.03 -0.3, 188.89 0 C206.39 2.26, 214.39 5.55, 211.75 22.85 C212.19 43.1, 214.73 54.26, 211.75 68.56 C212.99 82.57, 201.99 94.46, 188.89 91.42 C132.67 85.83, 74.09 87.36, 22.85 91.42 C10.38 93.23, -3.46 82.51, 0 68.56 C2.52 51.3, -0.63 35.45, 0 22.85 C3.29 4.34, 11.03 2.5, 22.85 0" stroke="none" stroke-width="0" fill="#ffffff"></path><path d="M22.85 0 C86.61 -1.61, 148.21 -2.49, 188.89 0 M22.85 0 C89.92 -0.52, 155.02 -1.45, 188.89 0 M188.89 0 C204.41 1.16, 211.74 6.54, 211.75 22.85 M188.89 0 C203.83 -0.33, 213.43 8.62, 211.75 22.85 M211.75 22.85 C210.51 38.19, 210.03 55.59, 211.75 68.56 M211.75 22.85 C211.43 34.58, 212.33 46.41, 211.75 68.56 M211.75 68.56 C213.18 84.89, 204.2 90.07, 188.89 91.42 M211.75 68.56 C209.88 81.77, 203.32 93.62, 188.89 91.42 M188.89 91.42 C140.46 90.81, 87.06 90.41, 22.85 91.42 M188.89 91.42 C135.08 92.56, 79.6 92.47, 22.85 91.42 M22.85 91.42 C7.69 91.36, -1.16 84.4, 0 68.56 M22.85 91.42 C9.16 91.15, -2.09 84.43, 0 68.56 M0 68.56 C-0.11 55.65, 0.01 39.71, 0 22.85 M0 68.56 C0.24 53.12, -1.17 40.31, 0 22.85 M0 22.85 C-0.17 7.11, 5.95 -1.89, 22.85 0 M0 22.85 C0.68 6.08, 9.46 -0.48, 22.85 0" stroke="#000000" stroke-width="1" fill="none"></path></g><g transform="translate(769.1970878990887 574.1244645308275) rotate(0 68.80994415283203 12.5)"><text x="68.80994415283203" y="17.52" font-family="Virgil, Segoe UI Emoji" font-size="20px" fill="#000000" text-anchor="middle" style="white-space: pre;" direction="ltr" dominant-baseline="alphabetic">Cloudflare R2</text></g><g stroke-linecap="round"><g transform="translate(640.1287478000922 449.1057262720974) rotate(0 39.934388002226115 -61.1867045959641)"><path d="M-0.64 0.97 C12.71 -19.43, 67.37 -102.32, 80.9 -123.07 M1.22 0.43 C14.44 -19.77, 67.34 -101.36, 80.49 -121.9" stroke="#1e1e1e" stroke-width="1" fill="none"></path></g><g transform="translate(640.1287478000922 449.1057262720974) rotate(0 39.934388002226115 -61.1867045959641)"><path d="M5.13 -23.36 C4.5 -12.76, -0.4 -4.43, -0.64 0.97 M5.13 -23.36 C4.78 -18.26, 1.88 -14.16, -0.64 0.97" stroke="#1e1e1e" stroke-width="1" fill="none"></path></g><g transform="translate(640.1287478000922 449.1057262720974) rotate(0 39.934388002226115 -61.1867045959641)"><path d="M19.41 -13.96 C13.6 -6.88, 3.47 -1.99, -0.64 0.97 M19.41 -13.96 C16.17 -10.84, 10.36 -8.65, -0.64 0.97" stroke="#1e1e1e" stroke-width="1" fill="none"></path></g><g transform="translate(640.1287478000922 449.1057262720974) rotate(0 39.934388002226115 -61.1867045959641)"><path d="M74.94 -97.53 C78.72 -104.72, 77.97 -114.23, 80.49 -121.9 M74.94 -97.53 C76.98 -102.3, 76.38 -108.13, 80.49 -121.9" stroke="#1e1e1e" stroke-width="1" fill="none"></path></g><g transform="translate(640.1287478000922 449.1057262720974) rotate(0 39.934388002226115 -61.1867045959641)"><path d="M60.57 -106.8 C69.57 -110.51, 74.08 -116.63, 80.49 -121.9 M60.57 -106.8 C65.52 -109.62, 67.85 -113.56, 80.49 -121.9" stroke="#1e1e1e" stroke-width="1" fill="none"></path></g></g><mask></mask><g stroke-linecap="round"><g transform="translate(641.1058658044021 464.9909744073798) rotate(0 36.854342119076136 -2.853467795194547)"><path d="M0.61 0.27 C12.62 -0.86, 60.7 -4.98, 72.7 -5.84 M-0.53 -0.64 C11.79 -1.66, 62.31 -3.34, 74.88 -4.37" stroke="#1e1e1e" stroke-width="1" fill="none"></path></g><g transform="translate(641.1058658044021 464.9909744073798) rotate(0 36.854342119076136 -2.853467795194547)"><path d="M23.28 -10.27 C15.86 -8.15, 7.26 -4.66, 0.61 0.27 M23.28 -10.27 C15.06 -5.64, 6.34 -2.38, 0.61 0.27" stroke="#1e1e1e" stroke-width="1" fill="none"></path></g><g transform="translate(641.1058658044021 464.9909744073798) rotate(0 36.854342119076136 -2.853467795194547)"><path d="M24.75 6.76 C16.68 2.92, 7.56 0.45, 0.61 0.27 M24.75 6.76 C15.9 5.12, 6.63 2.09, 0.61 0.27" stroke="#1e1e1e" stroke-width="1" fill="none"></path></g><g transform="translate(641.1058658044021 464.9909744073798) rotate(0 36.854342119076136 -2.853467795194547)"><path d="M51.89 5.45 C60.31 0.21, 67.7 -3.43, 74.88 -4.37 M51.89 5.45 C60.41 2.13, 68.54 -2.12, 74.88 -4.37" stroke="#1e1e1e" stroke-width="1" fill="none"></path></g><g transform="translate(641.1058658044021 464.9909744073798) rotate(0 36.854342119076136 -2.853467795194547)"><path d="M50.95 -11.63 C59.84 -10.89, 67.56 -8.55, 74.88 -4.37 M50.95 -11.63 C59.91 -8.65, 68.39 -6.6, 74.88 -4.37" stroke="#1e1e1e" stroke-width="1" fill="none"></path></g></g><mask></mask><g stroke-linecap="round"><g transform="translate(641.8882682643762 479.37514270995507) rotate(0 38.166016831382876 55.97009814904186)"><path d="M0.49 0.42 C13.07 19.17, 63.46 92.76, 76.01 111.33 M-0.71 -0.41 C11.64 18.6, 62.32 93.63, 74.89 112.55" stroke="#1e1e1e" stroke-width="1" fill="none"></path></g><g transform="translate(641.8882682643762 479.37514270995507) rotate(0 38.166016831382876 55.97009814904186)"><path d="M20.78 15.02 C14.65 9.54, 5.97 4.1, 0.49 0.42 M20.78 15.02 C15.49 11, 9.01 6.5, 0.49 0.42" stroke="#1e1e1e" stroke-width="1" fill="none"></path></g><g transform="translate(641.8882682643762 479.37514270995507) rotate(0 38.166016831382876 55.97009814904186)"><path d="M6.65 24.65 C5.46 15.8, 1.64 7.05, 0.49 0.42 M6.65 24.65 C5.5 17.78, 3.15 10.46, 0.49 0.42" stroke="#1e1e1e" stroke-width="1" fill="none"></path></g><g transform="translate(641.8882682643762 479.37514270995507) rotate(0 38.166016831382876 55.97009814904186)"><path d="M54.71 97.8 C62.19 102.24, 67.43 106.89, 74.89 112.55 M54.71 97.8 C61.24 102.27, 66.59 106.35, 74.89 112.55" stroke="#1e1e1e" stroke-width="1" fill="none"></path></g><g transform="translate(641.8882682643762 479.37514270995507) rotate(0 38.166016831382876 55.97009814904186)"><path d="M68.91 88.28 C71.42 96.06, 71.77 103.97, 74.89 112.55 M68.91 88.28 C71.28 95.57, 72.48 102.43, 74.89 112.55" stroke="#1e1e1e" stroke-width="1" fill="none"></path></g></g><mask></mask></svg>